<svg width="512" height="512" viewBox="0 0 512 512" fill="none" xmlns="http://www.w3.org/2000/svg">
<defs>
<linearGradient id="icon-bg" x1="256" y1="44" x2="256" y2="468" gradientUnits="userSpaceOnUse">
<stop stop-color="#141414"/>
<stop offset="1" stop-color="#050505"/>
</linearGradient>
<linearGradient id="icon-stroke" x1="256" y1="44" x2="256" y2="468" gradientUnits="userSpaceOnUse">
<stop stop-color="white"/>
<stop offset="1" stop-color="#525252"/>
</linearGradient>
<clipPath id="icon-clip">
<rect x="44" y="44" width="424" height="424" rx="104"/>
</clipPath>
</defs>
<rect x="44" y="44" width="424" height="424" rx="104" fill="url(#icon-bg)"/>
<g clip-path="url(#icon-clip)">
<svg x="44" y="44" width="424" height="424" viewBox="0 0 535 535" fill="none">
<rect width="535" height="535" fill="#131313"/>
<path d="M104.389 349.6V308.8H84V227.2H104.389V186.4H145.167V166H185.944V186.4H226.722V206.8H247.111V227.2H267.5V247.6H287.889V268H308.278V288.4H328.667V308.8H349.056V329.2H389.833V308.8H410.222V227.2H389.833V206.8H349.056V227.2H328.667V247.6H287.889V206.8H308.278V186.4H349.056V166H389.833V186.4H430.611V227.2H451V308.8H430.611V349.6H389.833V370H349.056V349.6H308.278V329.2H287.889V308.8H267.5V288.4H247.111V268H226.722V247.6H206.333V227.2H185.944V206.8H145.167V227.2H124.778V308.8H145.167V329.2H185.944V308.8H206.333V288.4H247.111V329.2H226.722V349.6H185.944V370H145.167V349.6H104.389Z" fill="#FAFAF9"/>
</svg>
</g>
<rect x="44.5" y="44.5" width="423" height="423" rx="103.5" stroke="url(#icon-stroke)" stroke-opacity="0.4"/>
</svg>
