<svg width="535" height="535" viewBox="0 0 535 535" fill="none" xmlns="http://www.w3.org/2000/svg">
<rect width="535" height="535" fill="url(#paint0_radial_2042_69)"/>
<g filter="url(#filter0_di_2042_69)">
<path d="M89.3333 356.7V312.1H67V222.9H89.3333V178.3H134V156H178.667V178.3H223.333V200.6H245.667V222.9H268V245.2H290.333V267.5H312.667V289.8H335V312.1H357.333V334.4H402V312.1H424.333V222.9H402V200.6H357.333V222.9H335V245.2H290.333V200.6H312.667V178.3H357.333V156H402V178.3H446.667V222.9H469V312.1H446.667V356.7H402V379H357.333V356.7H312.667V334.4H290.333V312.1H268V289.8H245.667V267.5H223.333V245.2H201V222.9H178.667V200.6H134V222.9H111.667V312.1H134V334.4H178.667V312.1H201V289.8H245.667V334.4H223.333V356.7H178.667V379H134V356.7H89.3333Z" fill="white"/>
</g>
<defs>
<filter id="filter0_di_2042_69" x="31.9" y="116.9" width="472.2" height="293.2" filterUnits="userSpaceOnUse" color-interpolation-filters="sRGB">
<feFlood flood-opacity="0" result="BackgroundImageFix"/>
<feColorMatrix in="SourceAlpha" type="matrix" values="0 0 0 0 0 0 0 0 0 0 0 0 0 0 0 0 0 0 127 0" result="hardAlpha"/>
<feOffset dy="-4"/>
<feGaussianBlur stdDeviation="17.55"/>
<feComposite in2="hardAlpha" operator="out"/>
<feColorMatrix type="matrix" values="0 0 0 0 0 0 0 0 0 0 0 0 0 0 0 0 0 0 1 0"/>
<feBlend mode="normal" in2="BackgroundImageFix" result="effect1_dropShadow_2042_69"/>
<feBlend mode="normal" in="SourceGraphic" in2="effect1_dropShadow_2042_69" result="shape"/>
<feColorMatrix in="SourceAlpha" type="matrix" values="0 0 0 0 0 0 0 0 0 0 0 0 0 0 0 0 0 0 127 0" result="hardAlpha"/>
<feOffset dy="-4"/>
<feGaussianBlur stdDeviation="2.2"/>
<feComposite in2="hardAlpha" operator="arithmetic" k2="-1" k3="1"/>
<feColorMatrix type="matrix" values="0 0 0 0 0.265268 0 0 0 0 0.265268 0 0 0 0 0.265268 0 0 0 1 0"/>
<feBlend mode="normal" in2="shape" result="effect2_innerShadow_2042_69"/>
</filter>
<radialGradient id="paint0_radial_2042_69" cx="0" cy="0" r="1" gradientUnits="userSpaceOnUse" gradientTransform="translate(267.5 267.5) rotate(90) scale(267.5)">
<stop stop-color="#333333"/>
<stop offset="0.5" stop-color="#222222"/>
<stop offset="1" stop-color="#111111"/>
</radialGradient>
</defs>
</svg>
