<svg width="512" height="512" viewBox="0 0 512 512" fill="none" xmlns="http://www.w3.org/2000/svg">
<rect x="44" y="44" width="424" height="424" rx="104" fill="url(#icon-bg)"/>
<rect x="44.5" y="44.5" width="423" height="423" rx="103.5" stroke="url(#icon-stroke)" stroke-opacity="0.4"/>
<path d="M176.625 316C177.358 318.933 177.725 322.6 177.725 327C177.725 331.217 177.358 334.883 176.625 338H154.625C153.892 334.883 153.525 331.217 153.525 327C153.525 322.6 153.892 318.933 154.625 316H140.875C140.142 312.883 139.775 309.217 139.775 305C139.775 300.6 140.142 296.933 140.875 294H127.125C126.392 290.883 126.025 287.217 126.025 283C126.025 278.6 126.392 274.933 127.125 272H113.375C112.642 268.883 112.275 265.217 112.275 261C112.275 256.6 112.642 252.933 113.375 250H127.125C126.392 246.883 126.025 243.217 126.025 239C126.025 234.6 126.392 230.933 127.125 228H140.875C140.142 224.883 139.775 221.217 139.775 217C139.775 212.6 140.142 208.933 140.875 206H154.625C153.892 202.883 153.525 199.217 153.525 195C153.525 190.6 153.892 186.933 154.625 184H176.625C177.358 186.933 177.725 190.6 177.725 195C177.725 199.217 177.358 202.883 176.625 206H162.875C163.608 208.933 163.975 212.6 163.975 217C163.975 221.217 163.608 224.883 162.875 228H149.125C149.858 230.933 150.225 234.6 150.225 239C150.225 243.217 149.858 246.883 149.125 250H135.375C136.108 252.933 136.475 256.6 136.475 261C136.475 265.217 136.108 268.883 135.375 272H149.125C149.858 274.933 150.225 278.6 150.225 283C150.225 287.217 149.858 290.883 149.125 294H162.875C163.608 296.933 163.975 300.6 163.975 305C163.975 309.217 163.608 312.883 162.875 316H176.625ZM300.207 173C300.207 177.217 299.841 180.883 299.107 184H290.857C291.591 186.933 291.957 190.6 291.957 195C291.957 199.217 291.591 202.883 290.857 206H282.607C283.341 208.933 283.707 212.6 283.707 217C283.707 221.217 283.341 224.883 282.607 228H274.357C275.091 230.933 275.457 234.6 275.457 239C275.457 243.217 275.091 246.883 274.357 250H266.107C266.841 252.933 267.207 256.6 267.207 261C267.207 265.217 266.841 268.883 266.107 272H257.857C258.591 274.933 258.957 278.6 258.957 283C258.957 287.217 258.591 290.883 257.857 294H249.607C250.341 296.933 250.707 300.6 250.707 305C250.707 309.217 250.341 312.883 249.607 316H241.357C242.091 318.933 242.457 322.6 242.457 327C242.457 331.217 242.091 334.883 241.357 338H233.107C233.841 340.933 234.207 344.6 234.207 349C234.207 353.217 233.841 356.883 233.107 360H211.107C210.374 356.883 210.007 353.217 210.007 349C210.007 344.6 210.374 340.933 211.107 338H219.357C218.624 334.883 218.257 331.217 218.257 327C218.257 322.6 218.624 318.933 219.357 316H227.607C226.874 312.883 226.507 309.217 226.507 305C226.507 300.6 226.874 296.933 227.607 294H235.857C235.124 290.883 234.757 287.217 234.757 283C234.757 278.6 235.124 274.933 235.857 272H244.107C243.374 268.883 243.007 265.217 243.007 261C243.007 256.6 243.374 252.933 244.107 250H252.357C251.624 246.883 251.257 243.217 251.257 239C251.257 234.6 251.624 230.933 252.357 228H260.607C259.874 224.883 259.507 221.217 259.507 217C259.507 212.6 259.874 208.933 260.607 206H268.857C268.124 202.883 267.757 199.217 267.757 195C267.757 190.6 268.124 186.933 268.857 184H277.107C276.374 180.883 276.007 177.217 276.007 173C276.007 168.6 276.374 164.933 277.107 162H299.107C299.841 164.933 300.207 168.6 300.207 173ZM397.94 261C397.94 265.217 397.573 268.883 396.84 272H383.09C383.823 274.933 384.19 278.6 384.19 283C384.19 287.217 383.823 290.883 383.09 294H369.34C370.073 296.933 370.44 300.6 370.44 305C370.44 309.217 370.073 312.883 369.34 316H355.59C356.323 318.933 356.69 322.6 356.69 327C356.69 331.217 356.323 334.883 355.59 338H333.59C332.857 334.883 332.49 331.217 332.49 327C332.49 322.6 332.857 318.933 333.59 316H347.34C346.607 312.883 346.24 309.217 346.24 305C346.24 300.6 346.607 296.933 347.34 294H361.09C360.357 290.883 359.99 287.217 359.99 283C359.99 278.6 360.357 274.933 361.09 272H374.84C374.107 268.883 373.74 265.217 373.74 261C373.74 256.6 374.107 252.933 374.84 250H361.09C360.357 246.883 359.99 243.217 359.99 239C359.99 234.6 360.357 230.933 361.09 228H347.34C346.607 224.883 346.24 221.217 346.24 217C346.24 212.6 346.607 208.933 347.34 206H333.59C332.857 202.883 332.49 199.217 332.49 195C332.49 190.6 332.857 186.933 333.59 184H355.59C356.323 186.933 356.69 190.6 356.69 195C356.69 199.217 356.323 202.883 355.59 206H369.34C370.073 208.933 370.44 212.6 370.44 217C370.44 221.217 370.073 224.883 369.34 228H383.09C383.823 230.933 384.19 234.6 384.19 239C384.19 243.217 383.823 246.883 383.09 250H396.84C397.573 252.933 397.94 256.6 397.94 261Z" fill="#F3F4F6"/>
<defs>
<linearGradient id="icon-bg" x1="256" y1="44" x2="256" y2="468" gradientUnits="userSpaceOnUse">
<stop stop-color="#141414"/>
<stop offset="1" stop-color="#050505"/>
</linearGradient>
<linearGradient id="icon-stroke" x1="256" y1="44" x2="256" y2="468" gradientUnits="userSpaceOnUse">
<stop stop-color="white"/>
<stop offset="1" stop-color="#525252"/>
</linearGradient>
</defs>
</svg>
