<svg width="367" height="204" viewBox="0 0 367 204" fill="none" xmlns="http://www.w3.org/2000/svg">
<path d="M20.3889 183.6V142.8H0V61.2H20.3889V20.4H61.1667V0H101.944V20.4H142.722V40.8H163.111V61.2H183.5V81.6H203.889V102H224.278V122.4H244.667V142.8H265.056V163.2H305.833V142.8H326.222V61.2H305.833V40.8H265.056V61.2H244.667V81.6H203.889V40.8H224.278V20.4H265.056V0H305.833V20.4H346.611V61.2H367V142.8H346.611V183.6H305.833V204H265.056V183.6H224.278V163.2H203.889V142.8H183.5V122.4H163.111V102H142.722V81.6H122.333V61.2H101.944V40.8H61.1667V61.2H40.7778V142.8H61.1667V163.2H101.944V142.8H122.333V122.4H163.111V163.2H142.722V183.6H101.944V204H61.1667V183.6H20.3889Z" fill="white"/>
</svg>
